<svg xmlns="http://www.w3.org/2000/svg" xml:space="preserve" width="28.16" height="28.16" style="shape-rendering:geometricPrecision;text-rendering:geometricPrecision;image-rendering:optimizeQuality;fill-rule:evenodd;clip-rule:evenodd" viewBox="0 0 745.06 745.06"><defs><linearGradient id="a" gradientUnits="userSpaceOnUse" x1="365.06" y1="745.07" x2="365.06" y2="-.01"><stop offset="0" style="stop-opacity:1;stop-color:#6958ff"/><stop offset="1" style="stop-opacity:1;stop-color:#d861c3"/></linearGradient></defs><path d="M372.11 0c158.02 0 293.05 98.39 347.2 237.25l-.02-.04c-24.64-15.53-53.81-24.52-85.08-24.52-88.28 0-159.84 71.56-159.84 159.84s71.56 159.84 159.84 159.84c31.27 0 60.44-8.99 85.08-24.52l.02-.04c-54.14 138.86-189.18 237.25-347.2 237.25C166.36 745.06-.42 578.28-.42 372.53-.42 166.78 166.36 0 372.11 0z" style="fill:url(#a)"/><path d="M634.21 212.69c31.27 0 60.44 8.99 85.08 24.52 16.36 41.95 25.35 87.58 25.35 135.32 0 47.74-8.99 93.37-25.35 135.32-24.64 15.53-53.81 24.52-85.08 24.52-88.28 0-159.84-71.56-159.84-159.84s71.56-159.84 159.84-159.84z" style="fill:#fefefe"/></svg>